<?xml version="1.0" encoding="UTF-8"?>
<svg id="a" data-name="Layer 1" xmlns="http://www.w3.org/2000/svg" viewBox="0 0 560 560">
  <rect x="24" y="24" width="512" height="512" rx="50" ry="50" transform="translate(560 0) rotate(90)" style="fill: #3d9970;"/>
  <g id="b">
    <g id="c">
      <g>
        <rect x="337.6" y="222.67" width="28.88" height="160.28" style="fill: #fff;"/>
        <path d="M277.98,173.39v.02c-15.67,.52-28.22,13.38-28.22,29.17v111.02c0,32.55-14.29,48.66-44.4,48.66-30.11,0-44.1-16.11-44.1-48.66v-111.32c0-15.95-12.93-28.88-28.88-28.88v142.34c0,41.67,25.23,70.87,72.99,70.87s73.6-29.2,73.6-70.87v-106.68c0-6.09,4.93-11.03,11.03-11.03h134.6l3.04-24.63h-149.65Z" style="fill: #fff;"/>
      </g>
    </g>
  </g>
</svg>